<svg width="128" height="128" viewBox="0 0 128 128" fill="none" xmlns="http://www.w3.org/2000/svg">
<path d="M82.04 35.2983C78.47 48.332 72.4 60.6545 63.88 71.0977C57.16 79.5599 48.9 86.7116 39.85 92.4513C46.78 100.964 54.61 108.827 63.56 115.237C86.94 98.6075 104.48 73.617 112.18 45.6805C109.02 43.9535 105.74 42.4704 102.39 41.1904C95.88 38.3967 89.09 36.4869 82.04 35.2983ZM96.11 58.958C88.74 75.5066 77.45 90.1758 63.66 101.726C60.95 99.3593 58.26 96.9415 55.76 94.2799C70.76 82.3332 82.42 66.0488 89.17 47.9154C92.64 48.8907 95.99 50.0488 99.22 51.4608C98.26 53.9802 97.25 56.4996 96.11 58.958Z" fill="white"/>
<path d="M71.36 33.8964C70.18 33.8253 69.06 33.7542 67.88 33.6729C65.38 33.5612 62.86 33.5408 60.35 33.6221C60.34 33.6221 58.05 33.7339 56.88 33.7846C56.86 33.7846 56.86 33.7846 56.84 33.7846C42.61 34.7192 28.55 38.417 15.88 45.0202C16.82 48.5656 17.83 52.0805 19.17 55.4126C29.36 49.8557 40.6 46.3916 52.08 45.01C53.3 44.8475 54.52 44.7256 55.74 44.6342C56.19 43.7504 56.2 43.7504 55.75 44.6342C51.11 53.7872 44.52 61.8634 36.68 68.4361C35.33 65.9573 34.04 63.4888 32.88 60.8881C29.51 62.1884 26.33 63.6818 23.21 65.4189C26.18 71.7885 29.58 77.9751 33.52 83.7554C51.69 72.7535 65.59 54.5999 71.36 33.8964Z" fill="white"/>
<path d="M108.32 20.3345C77.59 8.31671 42.1 9.38339 12 22.9656C12.28 26.7142 12.81 30.412 13.47 34.0894C32.95 24.8145 54.93 21.0964 76.34 23.504V23.565C89.68 24.9059 102.77 28.9796 114.8 34.9021C115.46 31.2247 116.05 27.4862 116.37 23.7377C113.78 22.4577 111.05 21.3605 108.32 20.3345Z" fill="white"/>
</svg>
